<svg xmlns="http://www.w3.org/2000/svg" xmlns:xlink="http://www.w3.org/1999/xlink" viewBox="0 0 640 640" width="100" height="100"><defs><path d="M519.64 350.34c0 115.9-86.71 210-193.51 210s-193.5-94.1-193.5-210 86.7-209.99 193.5-209.99 193.51 94.09 193.51 209.99z" id="a"/><path d="M509.84 472.25l-6.52 7.2-6.76 6.89-7 6.58-7.22 6.27-7.43 5.95-7.62 5.64-7.82 5.31-8 4.99-8.17 4.66-8.32 4.34-8.47 4-8.61 3.68-8.72 3.33-8.85 3-8.95 2.65-9.03 2.32-9.12 1.96-9.2 1.62-9.25 1.27-9.3.91-9.34.55-9.36.2-9.39-.16-9.39-.53-9.38-.89-9.37-1.27-9.34-1.63-9.31-2.01-9.25-2.39-9.2-2.76-9.13-3.15-9.05-3.53-8.96-3.92-8.85-4.31-8.74-4.69-8.62-5.1-8.41-5.44-8.11-5.72-7.8-6-7.51-6.27-7.2-6.52-6.89-6.76-6.58-7-6.27-7.22-5.95-7.43-5.63-7.63-2.64-3.88 104.17-168.39 289.66 179.19-3.53 4.59-6.27 7.5z" id="b"/><path d="M325.59 123.7l9.42 2.13 9.28 2.48 9.13 2.84 8.97 3.19 8.8 3.53 8.63 3.85 8.45 4.18 8.27 4.49 8.06 4.79 7.86 5.1 7.65 5.39 7.43 5.67 7.2 5.94 6.97 6.21 6.72 6.47 6.47 6.72 6.21 6.97 5.95 7.2 5.67 7.43 5.38 7.65 5.1 7.86 4.8 8.07 4.49 8.26 4.17 8.45 3.86 8.63 3.52 8.81 3.19 8.97 2.84 9.12 2.49 9.28 2.12 9.42 1.76 9.55 1.38 9.68 1 9.8.6 9.91.21 10.01-.21 10-.6 9.91-1 9.8-1.38 9.68-1.76 9.55-2.12 9.42-2.49 9.28-2.84 9.12-3.19 8.97-3.52 8.81-1.92 4.28h-198V119.98l5.75.58 9.68 1.38 9.55 1.76z" id="c"/><path d="M153.65 460.57l-1.92-4.28-3.52-8.81-3.19-8.97-2.84-9.12-2.49-9.28-2.12-9.42-1.76-9.55-1.38-9.68-1-9.8-.6-9.91-.2-10 .2-10.01.6-9.91 1-9.8 1.38-9.68 1.76-9.55 2.12-9.42 2.49-9.28 2.84-9.12 3.19-8.97 3.52-8.81 3.86-8.63 4.17-8.45 4.49-8.26 4.8-8.07 5.1-7.86 5.38-7.65 5.67-7.43 5.95-7.2 6.21-6.97 6.47-6.72 6.72-6.47 6.97-6.21 7.2-5.94 7.43-5.67 7.65-5.39 7.86-5.1 8.06-4.79 8.27-4.49 8.45-4.18 8.63-3.85 8.8-3.53 8.97-3.19 9.13-2.84 9.28-2.48 9.42-2.13 9.55-1.76 9.68-1.38 5.75-.58v340.59h-198z" id="d"/><path d="M493.03 366.15c0 92.49-72.45 167.58-161.69 167.58s-161.69-75.09-161.69-167.58c0-92.48 72.45-167.57 161.69-167.57s161.69 75.09 161.69 167.57z" id="e"/><path d="M401.61 166.54c0 42.82-34.77 77.59-77.59 77.59s-77.59-34.77-77.59-77.59c0-42.83 34.77-77.59 77.59-77.59s77.59 34.76 77.59 77.59z" id="f"/><path d="M226.69 447.42c0 42.82-34.77 77.59-77.59 77.59-42.83 0-77.6-34.77-77.6-77.59 0-42.83 34.77-77.6 77.6-77.6 42.82 0 77.59 34.77 77.59 77.6z" id="g"/><path d="M576.54 447.42c0 42.82-34.77 77.59-77.6 77.59-42.82 0-77.59-34.77-77.59-77.59 0-42.83 34.77-77.6 77.59-77.6 42.83 0 77.6 34.77 77.6 77.6z" id="h"/></defs><use xlink:href="#a" fill="#fff"/><use xlink:href="#b" fill-opacity="0" stroke="#fff" stroke-width="100"/><use xlink:href="#b" fill-opacity="0" stroke="#722aac" stroke-width="40"/><use xlink:href="#c" fill-opacity="0" stroke="#fff" stroke-width="100"/><use xlink:href="#c" fill-opacity="0" stroke="#722aac" stroke-width="40"/><use xlink:href="#d" fill-opacity="0" stroke="#fff" stroke-width="100"/><use xlink:href="#d" fill-opacity="0" stroke="#722aac" stroke-width="40"/><use xlink:href="#e" fill="#fff"/><use xlink:href="#f" fill="#fff"/><use xlink:href="#f" fill-opacity="0" stroke="#fff" stroke-width="100"/><use xlink:href="#f" fill-opacity="0" stroke="#722aac" stroke-width="40"/><use xlink:href="#g" fill="#fff"/><use xlink:href="#g" fill-opacity="0" stroke="#fff" stroke-width="100"/><use xlink:href="#g" fill-opacity="0" stroke="#722aac" stroke-width="40"/><use xlink:href="#h" fill="#fff"/><use xlink:href="#h" fill-opacity="0" stroke="#fff" stroke-width="100"/><use xlink:href="#h" fill-opacity="0" stroke="#722aac" stroke-width="40"/></svg>